<?xml version="1.0" standalone="no"?>
<!DOCTYPE svg PUBLIC "-//W3C//DTD SVG 20010904//EN"
 "http://www.w3.org/TR/2001/REC-SVG-20010904/DTD/svg10.dtd">
<svg version="1.0" xmlns="http://www.w3.org/2000/svg"
 width="225.000000pt" height="225.000000pt" viewBox="0 0 225.000000 225.000000"
 preserveAspectRatio="xMidYMid meet">

<g transform="translate(0.000000,225.000000) scale(0.100000,-0.100000)"
fill="#000000" stroke="none">
<path d="M270 1955 c0 -14 383 -1576 420 -1716 6 -22 16 -39 23 -39 19 1 1302
1240 1302 1258 0 13 -169 65 -840 259 -462 133 -855 245 -872 249 -27 5 -33 3
-33 -11z m169 -66 c58 -17 136 -39 173 -50 l68 -20 -131 -127 c-72 -70 -135
-128 -139 -130 -4 -1 -28 78 -52 178 -25 99 -41 180 -36 180 6 0 58 -14 117
-31z m500 -143 c84 -25 155 -47 158 -49 4 -4 -242 -250 -255 -255 -7 -2 -93
328 -92 351 0 5 8 6 18 3 9 -3 86 -26 171 -50z m-185 -139 c24 -97 39 -177 33
-177 -9 0 -302 83 -337 96 -10 4 26 44 120 134 74 70 136 127 137 126 2 -2 23
-82 47 -179z m664 1 c62 -17 111 -34 110 -37 -2 -3 -62 -64 -134 -134 l-131
-128 -42 168 c-23 92 -44 176 -47 185 -5 15 1 15 63 -3 37 -10 119 -34 181
-51z m-240 -120 c23 -94 40 -173 37 -176 -5 -5 -335 86 -345 96 -5 4 250 251
261 252 3 0 24 -77 47 -172z m602 15 c91 -25 169 -49 173 -53 4 -4 -51 -64
-124 -134 -73 -70 -135 -123 -139 -119 -4 4 -24 80 -45 168 -21 88 -40 166
-42 173 -7 17 -6 17 177 -35z m-171 -147 c23 -93 40 -170 39 -172 -2 -1 -84
20 -182 49 l-179 51 134 127 c74 70 137 125 140 121 3 -4 25 -83 48 -176z
m-1009 87 c91 -25 168 -49 173 -53 4 -3 -52 -64 -123 -135 -74 -72 -135 -124
-139 -119 -5 5 -25 79 -45 164 -20 85 -39 163 -42 173 -3 9 -2 17 3 17 4 0 82
-21 173 -47z m429 -123 c95 -27 175 -51 178 -53 2 -2 -56 -62 -129 -132 -113
-109 -133 -125 -140 -109 -4 11 -24 84 -43 164 -20 80 -38 153 -41 163 -3 9
-4 17 -2 17 2 0 81 -22 177 -50z m-124 -328 c-2 -2 -85 21 -186 50 l-183 52
139 134 140 134 46 -184 c25 -101 45 -184 44 -186z m735 150 c3 -2 -56 -62
-130 -133 -74 -70 -138 -125 -141 -121 -6 7 -89 333 -89 350 0 8 347 -85 360
-96z m-351 -96 c23 -93 40 -171 37 -173 -5 -5 -321 83 -344 96 -9 5 25 44 119
135 72 70 135 123 139 119 4 -4 26 -84 49 -177z m-409 -93 c5 -5 -250 -253
-260 -253 -5 0 -91 335 -90 351 0 7 341 -89 350 -98z m90 -220 c22 -89 40
-164 40 -166 0 -5 -343 92 -350 99 -2 3 54 63 125 135 107 106 131 126 137
112 4 -10 26 -91 48 -180z m174 147 c93 -27 170 -51 172 -53 2 -1 -57 -60
-131 -130 l-134 -128 -10 38 c-5 21 -24 94 -41 163 -17 69 -33 133 -36 143 -3
9 -2 17 3 17 4 0 84 -23 177 -50z m-311 -305 c92 -26 166 -51 165 -54 -7 -15
-269 -264 -273 -259 -3 2 -24 87 -49 187 -37 154 -41 182 -27 178 9 -2 92 -26
184 -52z"/>
</g>
</svg>
